<?xml version="1.0" standalone="no"?>
<!DOCTYPE svg PUBLIC "-//W3C//DTD SVG 20010904//EN"
 "http://www.w3.org/TR/2001/REC-SVG-20010904/DTD/svg10.dtd">
<svg version="1.0" xmlns="http://www.w3.org/2000/svg"
 width="700.000000pt" height="700.000000pt" viewBox="0 0 700.000000 700.000000"
 preserveAspectRatio="xMidYMid meet">
<metadata>
Created by potrace 1.14, written by Peter Selinger 2001-2017
</metadata>
<g transform="translate(0.000000,700.000000) scale(0.100000,-0.100000)"
fill="#000000" stroke="none">
<path d="M685 6983 c-338 -72 -596 -330 -668 -668 -22 -99 -23 -1582 -2 -1690
67 -346 329 -610 675 -681 76 -15 164 -17 845 -17 813 0 828 0 970 51 230 81
403 245 500 472 18 42 35 89 39 106 9 43 16 75 22 114 9 48 8 1523 0 1585 -49
355 -284 619 -646 723 -81 23 -1628 28 -1735 5z"/>
<path d="M4620 6985 c-354 -73 -621 -346 -680 -695 -10 -56 -13 -264 -13 -825
1 -412 3 -768 6 -790 31 -231 144 -427 329 -571 95 -74 237 -139 343 -159 17
-3 46 -8 65 -11 65 -12 1495 -10 1588 2 208 26 400 131 537 291 90 106 146
219 192 392 4 14 8 386 9 826 2 678 0 811 -13 870 -72 338 -331 597 -668 668
-98 21 -1595 22 -1695 2z"/>
<path d="M847 3074 c-1 -1 -36 -4 -77 -7 -314 -25 -601 -244 -714 -547 -56
-148 -56 -147 -53 -1010 2 -437 6 -806 10 -819 3 -13 14 -49 23 -80 71 -247
266 -458 507 -552 73 -28 97 -34 172 -47 22 -4 400 -7 840 -7 742 0 805 1 870
18 94 25 256 106 332 167 167 134 282 342 310 559 6 50 6 1557 0 1581 -2 8 -7
38 -12 65 -4 28 -24 91 -44 140 -116 289 -380 493 -686 532 -40 5 -1472 11
-1478 7z"/>
<path d="M4710 3069 c-332 -28 -620 -248 -731 -560 -15 -41 -30 -91 -33 -110
-3 -19 -9 -47 -12 -64 -3 -16 -6 -376 -6 -800 -1 -798 0 -817 42 -945 39 -119
108 -236 194 -328 76 -82 218 -173 332 -213 135 -47 154 -48 951 -48 464 -1
781 3 825 9 169 24 346 112 469 234 118 116 189 239 232 397 22 84 22 89 22
874 0 435 -3 815 -7 845 -10 74 -50 188 -94 269 -134 243 -381 410 -649 438
-80 8 -1439 10 -1535 2z"/>
</g>
</svg>
