<svg width="50" height="50" viewBox="0 0 50 50" fill="none" xmlns="http://www.w3.org/2000/svg">
<path d="M23.3644 0.0390546C23.257 0.0488193 22.9153 0.0829956 22.6077 0.107407C15.5136 0.746993 8.86877 4.57475 4.66019 10.458C2.31667 13.7291 0.817794 17.4397 0.251443 21.37C0.0512672 22.7419 0.0268555 23.1472 0.0268555 25.0073C0.0268555 26.8675 0.0512672 27.2727 0.251443 28.6447C1.60873 38.0236 8.28289 45.9037 17.3347 48.8234C18.9557 49.3458 20.6645 49.7022 22.6077 49.917C23.3644 50 26.6356 50 27.3924 49.917C30.7465 49.546 33.588 48.716 36.3905 47.2854C36.8201 47.0657 36.9031 47.0071 36.8446 46.9583C36.8055 46.929 34.9746 44.4732 32.7776 41.5047L28.7838 36.1098L23.7794 28.7033C21.0258 24.6314 18.7604 21.3016 18.7409 21.3016C18.7213 21.2967 18.7018 24.5874 18.692 28.6056C18.6774 35.6411 18.6725 35.9242 18.5846 36.0902C18.4577 36.3295 18.36 36.4271 18.155 36.5345C17.9987 36.6126 17.862 36.6273 17.1248 36.6273H16.2802L16.0556 36.4857C15.9091 36.3929 15.8017 36.2709 15.7285 36.1293L15.6259 35.9096L15.6357 26.1205L15.6503 16.3265L15.8017 16.1361C15.8798 16.0336 16.0458 15.9018 16.163 15.8383C16.3632 15.7406 16.4413 15.7309 17.2859 15.7309C18.2819 15.7309 18.4479 15.7699 18.7067 16.0531C18.7799 16.1312 21.4896 20.2129 24.7315 25.1294C27.9734 30.0459 32.4065 36.7591 34.584 40.0547L38.5387 46.0453L38.7389 45.9135C40.5112 44.7613 42.386 43.1208 43.8702 41.412C47.0291 37.7844 49.0651 33.361 49.7486 28.6447C49.9488 27.2727 49.9732 26.8675 49.9732 25.0073C49.9732 23.1472 49.9488 22.7419 49.7486 21.37C48.3913 11.991 41.7171 4.11092 32.6653 1.19129C31.0688 0.673758 29.3697 0.317348 27.4656 0.102525C26.9969 0.0537016 23.7697 -4.11185e-06 23.3644 0.0390546V0.0390546ZM33.588 15.145C33.8224 15.2622 34.0128 15.4868 34.0812 15.7211C34.1202 15.8481 34.13 18.5626 34.1202 24.6802L34.1056 33.4586L32.5579 31.0858L31.0053 28.713V22.3318C31.0053 18.2062 31.0248 15.8871 31.0541 15.7748C31.1322 15.5014 31.3031 15.2866 31.5375 15.1597C31.7376 15.0571 31.8109 15.0474 32.5774 15.0474C33.3 15.0474 33.4269 15.0571 33.588 15.145V15.145Z" fill="white"/>
<path d="M38.2946 46.1527C38.1238 46.2601 38.0701 46.3334 38.2214 46.2504C38.3288 46.1869 38.5046 46.0551 38.4753 46.0502C38.4606 46.0502 38.3776 46.099 38.2946 46.1527ZM37.9578 46.3724C37.8699 46.4408 37.8699 46.4457 37.9773 46.392C38.0359 46.3627 38.0847 46.3285 38.0847 46.3187C38.0847 46.2797 38.0603 46.2894 37.9578 46.3724ZM37.7136 46.5189C37.6258 46.5873 37.6258 46.5921 37.7332 46.5384C37.7918 46.5091 37.8406 46.475 37.8406 46.4652C37.8406 46.4261 37.8162 46.4359 37.7136 46.5189ZM37.4695 46.6654C37.3816 46.7337 37.3816 46.7386 37.4891 46.6849C37.5476 46.6556 37.5965 46.6214 37.5965 46.6117C37.5965 46.5726 37.5721 46.5824 37.4695 46.6654ZM37.0985 46.8607C36.9129 46.9583 36.9227 46.9974 37.1082 46.9046C37.1912 46.8607 37.2547 46.8167 37.2547 46.807C37.2547 46.7728 37.2498 46.7777 37.0985 46.8607Z" fill="white"/>
</svg>
