<svg width="67" height="50" fill="none" xmlns="http://www.w3.org/2000/svg"><g clip-path="url(#a)"><path d="M57.37 28.724c-2.33.013-4.35.573-6.042 1.406-.625-1.237-1.25-2.317-1.354-3.125-.117-.937-.26-1.51-.117-2.63.143-1.12.794-2.708.794-2.838-.013-.118-.143-.69-1.484-.704-1.341-.013-2.5.26-2.63.612-.13.352-.391 1.16-.56 1.992-.235 1.224-2.683 5.56-4.076 7.84-.456-.886-.846-1.668-.925-2.293-.117-.937-.26-1.51-.117-2.63.144-1.12.795-2.708.795-2.838-.013-.117-.144-.69-1.485-.703-1.34-.014-2.5.26-2.63.611-.13.352-.273 1.185-.56 1.993-.273.807-3.528 8.047-4.375 9.935-.43.963-.807 1.731-1.08 2.252-.274.521-.014.04-.04.091l-.364.69v.014c-.182.325-.378.637-.469.637-.065 0-.195-.872.026-2.07.482-2.513 1.654-6.432 1.64-6.575 0-.065.222-.755-.755-1.107-.95-.351-1.288.234-1.367.234-.078 0-.143.209-.143.209s1.055-4.414-2.018-4.414c-1.927 0-4.583 2.096-5.899 4.01-.833.456-2.604 1.42-4.479 2.448-.716.39-1.458.807-2.161 1.185l-.143-.157C11.628 28.83 4.74 26.017 5.026 20.678c.104-1.94.781-7.057 13.23-13.255 10.195-5.078 18.359-3.685 19.778-.586 2.018 4.427-4.362 12.656-14.96 13.841-4.037.456-6.16-1.107-6.694-1.693-.56-.612-.637-.638-.846-.52-.338.182-.13.729 0 1.054.313.82 1.615 2.279 3.828 3.008 1.94.638 6.68.99 12.41-1.224 6.418-2.487 11.431-9.388 9.96-15.156-1.497-5.873-11.237-7.8-20.443-4.531-5.482 1.953-11.42 5-15.69 8.997-5.078 4.74-5.885 8.88-5.547 10.599 1.185 6.133 9.636 10.13 13.021 13.086-.17.09-.325.182-.469.26-1.692.834-8.138 4.206-9.752 7.774-1.823 4.036.286 6.94 1.692 7.33 4.35 1.211 8.803-.963 11.211-4.544 2.396-3.58 2.11-8.229 1.003-10.351l-.04-.078 1.329-.782a79.61 79.61 0 0 1 2.448-1.38c-.417 1.133-.716 2.474-.873 4.427-.182 2.292.756 5.26 1.993 6.432.547.508 1.198.521 1.601.521 1.433 0 2.084-1.185 2.8-2.604.885-1.732 1.666-3.737 1.666-3.737s-.976 5.43 1.693 5.43c.977 0 1.953-1.263 2.396-1.914v.013s.026-.04.078-.13c.055-.081.107-.164.156-.248v-.026c.39-.677 1.263-2.226 2.565-4.791 1.68-3.308 3.295-7.448 3.295-7.448s.156 1.015.638 2.682c.286.99.911 2.07 1.393 3.125-.39.547-.625.86-.625.86l.013.012c-.313.417-.664.86-1.029 1.302-1.328 1.589-2.916 3.399-3.125 3.92-.247.612-.195 1.067.287 1.432.351.26.976.313 1.64.26 1.198-.078 2.032-.377 2.448-.56a8.482 8.482 0 0 0 2.11-1.106c1.302-.964 2.096-2.33 2.018-4.154-.04-1.002-.365-1.992-.768-2.93.117-.169.234-.338.351-.52 2.057-3.008 3.646-6.315 3.646-6.315s.156 1.015.638 2.682c.247.846.742 1.77 1.185 2.682-1.927 1.576-3.138 3.399-3.555 4.597-.768 2.213-.169 3.216.964 3.45.508.104 1.237-.13 1.784-.364a8.081 8.081 0 0 0 2.252-1.16c1.302-.963 2.552-2.304 2.487-4.114-.039-.833-.26-1.653-.56-2.435 1.641-.677 3.763-1.067 6.459-.742 5.794.677 6.94 4.297 6.719 5.807-.222 1.511-1.433 2.344-1.837 2.605-.403.247-.533.338-.494.52.052.274.234.26.586.209.481-.078 3.047-1.237 3.15-4.023.157-3.582-3.242-7.488-9.27-7.449ZM12.682 43.789c-1.914 2.096-4.609 2.89-5.755 2.214-1.237-.717-.755-3.802 1.602-6.029 1.432-1.354 3.294-2.604 4.518-3.372.273-.17.69-.417 1.185-.716.078-.053.13-.079.13-.079a9.06 9.06 0 0 0 .3-.182c.872 3.177.039 5.964-1.98 8.164Zm13.998-9.518c-.664 1.627-2.07 5.807-2.917 5.573-.73-.196-1.172-3.36-.143-6.485.52-1.575 1.627-3.45 2.278-4.18 1.055-1.171 2.2-1.562 2.488-1.08.338.625-1.29 5.156-1.706 6.172Zm11.55 5.52c-.287.144-.548.248-.665.17-.09-.052.117-.247.117-.247s1.446-1.55 2.018-2.266c.326-.416.717-.898 1.133-1.445v.156c0 1.875-1.796 3.125-2.604 3.633Zm8.905-2.03c-.208-.157-.182-.639.521-2.149.274-.599.899-1.602 1.98-2.552.13.39.208.768.195 1.12-.013 2.343-1.68 3.216-2.696 3.58Z" fill="#CF649A"/></g><defs><clipPath id="a"><path fill="#fff" d="M0 0h66.667v50H0z"/></clipPath></defs></svg>