<svg width="50" height="50" viewBox="0 0 50 50" fill="none" xmlns="http://www.w3.org/2000/svg">
<rect x="1" y="1" width="48" height="48" rx="24" fill="#222222" stroke="#61DAFB" stroke-width="2"/>
<path d="M38.675 24.7144C38.675 22.8975 36.4 21.1756 32.9119 20.1081C33.7169 16.5531 33.3588 13.7244 31.7825 12.8188C31.4194 12.6063 30.9944 12.5056 30.53 12.5056V13.7519C30.7875 13.7519 30.9944 13.8025 31.1675 13.8975C31.9275 14.3338 32.2575 15.9937 32.0006 18.1287C31.9388 18.6544 31.8381 19.2081 31.7156 19.7725C30.5471 19.4909 29.3612 19.2873 28.1656 19.1631C27.4537 18.1808 26.6769 17.247 25.8406 16.3681C27.6625 14.6744 29.3731 13.7469 30.5356 13.7469V12.5C28.9981 12.5 26.9856 13.5956 24.9513 15.4962C22.9163 13.6069 20.9038 12.5225 19.3669 12.5225V13.7688C20.5238 13.7688 22.24 14.6913 24.0625 16.3737C23.23 17.2496 22.4586 18.1816 21.7537 19.1631C20.556 19.2859 19.3681 19.4914 18.1988 19.7781C18.0753 19.243 17.9781 18.7021 17.9075 18.1575C17.645 16.0219 17.9694 14.3612 18.7238 13.92C18.8919 13.8194 19.1094 13.7744 19.3669 13.7744V12.5281C18.8975 12.5281 18.4725 12.6281 18.1037 12.8406C16.5325 13.7469 16.1806 16.5694 16.9912 20.1137C13.5137 21.1869 11.25 22.9031 11.25 24.7144C11.25 26.5312 13.525 28.2531 17.0131 29.3206C16.2081 32.8756 16.5662 35.7044 18.1425 36.61C18.5062 36.8225 18.9306 36.9231 19.4006 36.9231C20.9381 36.9231 22.9506 35.8275 24.985 33.9269C27.0194 35.8163 29.0319 36.9006 30.5694 36.9006C31.0387 36.9006 31.4637 36.8006 31.8325 36.5881C33.4037 35.6819 33.7556 32.8594 32.945 29.315C36.4113 28.2475 38.675 26.5256 38.675 24.7144V24.7144ZM31.3969 20.9856C31.1795 21.7329 30.9275 22.4698 30.6419 23.1938C30.4109 22.7397 30.1668 22.2925 29.91 21.8525C29.6528 21.4097 29.3844 20.9735 29.105 20.5444C29.8988 20.6619 30.6644 20.8069 31.3969 20.9856ZM28.8363 26.9394C28.4177 27.6698 27.9683 28.3821 27.4894 29.0744C25.8119 29.2225 24.1247 29.2245 22.4469 29.0806C21.9673 28.391 21.5161 27.6821 21.0944 26.9556C20.6751 26.231 20.2872 25.4887 19.9319 24.7306C20.6421 23.2074 21.4799 21.747 22.4363 20.365C24.1136 20.2174 25.8005 20.2157 27.4781 20.36C27.9577 21.0492 28.4089 21.7577 28.8306 22.4838C29.2499 23.2084 29.6378 23.9507 29.9931 24.7088C29.6377 25.4675 29.252 26.2116 28.8369 26.9394H28.8363ZM30.6425 26.2125C30.9359 26.9411 31.1933 27.6836 31.4138 28.4375C30.6534 28.6223 29.8849 28.7714 29.1106 28.8844C29.3898 28.4495 29.658 28.0077 29.915 27.5594C30.1725 27.1125 30.4125 26.6594 30.6419 26.2125H30.6425ZM24.9738 32.1769C24.4253 31.6077 23.9065 31.0106 23.4194 30.3881C23.9225 30.4106 24.4369 30.4275 24.9569 30.4275C25.4819 30.4275 26.0025 30.4162 26.5106 30.3881C26.0308 31.0117 25.5175 31.6088 24.9731 32.1769H24.9738ZM20.8144 28.8844C20.044 28.7727 19.2792 28.6255 18.5225 28.4431C18.7399 27.6958 18.9918 26.959 19.2775 26.235C19.5069 26.6819 19.7469 27.1287 20.0094 27.5762C20.2719 28.0237 20.5406 28.4594 20.8144 28.8844ZM24.9456 17.2513C25.4941 17.8206 26.0129 18.4179 26.5 19.0406C25.9879 19.0161 25.4752 19.003 24.9625 19.0013C24.4375 19.0013 23.9169 19.0125 23.4081 19.0406C23.888 18.4169 24.4012 17.8195 24.9456 17.2513V17.2513ZM20.8087 20.5444C20.2544 21.4072 19.7433 22.297 19.2775 23.2106C18.9841 22.4821 18.7267 21.7395 18.5062 20.9856C19.267 20.8055 20.0353 20.6582 20.8087 20.5444V20.5444ZM15.75 27.5431C13.7712 26.6994 12.4912 25.5919 12.4912 24.7144C12.4912 23.8369 13.7712 22.7244 15.75 21.8856C16.2312 21.6794 16.7563 21.4944 17.2988 21.3213C17.6407 22.4831 18.0608 23.6205 18.5562 24.7256C18.0659 25.8252 17.6512 26.957 17.315 28.1131C16.7843 27.9488 16.262 27.7586 15.75 27.5431V27.5431ZM18.7575 35.5306C17.9975 35.095 17.6675 33.435 17.9244 31.2994C17.9862 30.7744 18.0869 30.2206 18.21 29.6556C19.3056 29.9244 20.5019 30.1306 21.7594 30.2656C22.4713 31.248 23.2481 32.1817 24.0844 33.0606C22.2625 34.7544 20.5519 35.6819 19.3894 35.6819C19.1375 35.6762 18.925 35.6256 18.7575 35.5312V35.5306ZM32.0169 31.2713C32.2794 33.4069 31.9556 35.0675 31.2013 35.5087C31.0331 35.6094 30.8156 35.6544 30.5581 35.6544C29.4012 35.6544 27.685 34.7319 25.8625 33.0494C26.695 32.1735 27.4664 31.2415 28.1712 30.26C29.369 30.1372 30.5569 29.9317 31.7263 29.645C31.855 30.2094 31.9556 30.7513 32.0169 31.2713V31.2713ZM34.1694 27.5431C33.6881 27.7494 33.1631 27.9344 32.6213 28.1075C32.2792 26.9456 31.8588 25.8082 31.3631 24.7031C31.8534 23.6035 32.2681 22.4717 32.6044 21.3156C33.1575 21.4887 33.6831 21.6788 34.175 21.8856C36.1538 22.7294 37.4338 23.8369 37.4338 24.7144C37.4288 25.5919 36.1481 26.7044 34.1694 27.5431V27.5431Z" fill="#61DAFB"/>
<path d="M24.9568 27.5575C25.6343 27.5575 26.2841 27.2883 26.7632 26.8092C27.2423 26.3301 27.5115 25.6804 27.5115 25.0028C27.5115 24.3253 27.2423 23.6755 26.7632 23.1964C26.2841 22.7173 25.6343 22.4481 24.9568 22.4481C24.2792 22.4481 23.6294 22.7173 23.1504 23.1964C22.6713 23.6755 22.4021 24.3253 22.4021 25.0028C22.4021 25.6804 22.6713 26.3301 23.1504 26.8092C23.6294 27.2883 24.2792 27.5575 24.9568 27.5575V27.5575Z" fill="#61DAFB"/>
</svg>
